<?xml version="1.0" encoding="utf-8"?>
<!DOCTYPE svg PUBLIC "-//W3C//DTD SVG 1.1//EN" "http://www.w3.org/Graphics/SVG/1.1/DTD/svg11.dtd">

<svg version="1.1" xmlns="http://www.w3.org/2000/svg" xmlns:xlink="http://www.w3.org/1999/xlink">

	<symbol id="icon-save" viewBox="0 0 32 32">
		<path class="path1" d="M29.894 18.237l-5.037-11.987c-0.397-0.8-1.453-1.454-2.347-1.454h-3.278l0.608 6.504h4.32l-8.16 6.768-8.16-6.768h4.32l0.608-6.502h-3.277c-0.893 0-1.949 0.654-2.347 1.454l-5.037 11.987c-0.4 0.8-0.605 2.176-0.459 3.059l1.088 5.898c0.147 0.882 0.997 1.603 1.89 1.603h22.75c0.894 0 1.744-0.722 1.891-1.603l1.088-5.898c0.144-0.883-0.061-2.261-0.461-3.061zM27.712 22.438l-0.413 2.403c-0.125 0.923-0.957 1.678-1.846 1.678h-18.906c-0.891 0-1.723-0.755-1.846-1.678l-0.414-2.403c-0.123-0.923 0.506-1.678 1.397-1.678h20.634c0.893 0.002 1.52 0.755 1.395 1.678z"></path>
	</symbol>

	<symbol id="icon-preview" viewBox="-4 -4 40 40">
		<path class="path1" d="M30 32h-22q-0.844 0-1.422-0.578t-0.578-1.422v-2.531q-2.656-0.969-4.328-3.281t-1.672-5.219 1.672-5.219 4.328-3.25v-8.5q0-0.813 0.578-1.406t1.422-0.594h12v11q0 0.406 0.297 0.703t0.703 0.297h10.969l0.031 0.031v17.969q0 0.813-0.594 1.406t-1.406 0.594zM19.75 27.156l-4.719-4.688q0.969-1.656 0.969-3.5 0-2.875-2.047-4.938t-4.953-2.063-4.953 2.047-2.047 4.953 2.047 4.953 4.953 2.047q1.813 0 3.5-0.969l4.688 4.719q0.25 0.25 0.625 0.25t0.656-0.25l1.281-1.281q0.25-0.25 0.25-0.625t-0.25-0.656zM9 23.969q-2.063 0-3.531-1.453t-1.469-3.531 1.469-3.547 3.531-1.469 3.531 1.469 1.469 3.547-1.469 3.531-3.531 1.453zM22-0.031q0.813 0.031 1.375 0.594l8.031 8.031q0.594 0.594 0.563 1.406h-9.969v-10.031z"></path>
	</symbol>

	<symbol id="icon-add" viewBox="0 0 32 32">
		<path class="path1" d="M21.714 17.143v-2.286q0-0.464-0.339-0.804t-0.804-0.339h-4.571v-4.571q0-0.464-0.339-0.804t-0.804-0.339h-2.286q-0.464 0-0.804 0.339t-0.339 0.804v4.571h-4.571q-0.464 0-0.804 0.339t-0.339 0.804v2.286q0 0.464 0.339 0.804t0.804 0.339h4.571v4.571q0 0.464 0.339 0.804t0.804 0.339h2.286q0.464 0 0.804-0.339t0.339-0.804v-4.571h4.571q0.464 0 0.804-0.339t0.339-0.804zM27.429 16q0 3.732-1.839 6.884t-4.991 4.991-6.884 1.839-6.884-1.839-4.991-4.991-1.839-6.884 1.839-6.884 4.991-4.991 6.884-1.839 6.884 1.839 4.991 4.991 1.839 6.884z"></path>
	</symbol>

	<symbol id="icon-file" viewBox="-6 0 35 32">
		<path class="path1" d="M22.857 13.714v14.286q0 0.714-0.5 1.214t-1.214 0.5h-19.429q-0.714 0-1.214-0.5t-0.5-1.214v-24q0-0.714 0.5-1.214t1.214-0.5h9.714v9.714q0 0.714 0.5 1.214t1.214 0.5h9.714zM22.804 11.429h-9.089v-9.089q1.464 0.268 2.357 1.161l5.571 5.571q0.893 0.893 1.161 2.357z"></path>
	</symbol>

	<symbol id="icon-reload" viewBox="0 0 1024 1024">
		<path class="path1" d="M320 640v-192h192l-256-256-256 256h192v320h384l-128-128zM832 576v-320h-384l128 128h128v192h-192l256 256 256-256z"></path>
	</symbol>

	<symbol id="icon-run" viewBox="0 0 1024 1024">
		<path class="path1" d="M512 0c-282.752 0-512 229.248-512 512s229.248 512 512 512 512-229.248 512-512-229.248-512-512-512zM320 768v-512l512.256 256-512.256 256z"/>
	</symbol>

	<symbol id="icon-export" viewBox="0 0 1024 1024">
		<path class="path1" d="M868.762 256c0-51.2-50.944-51.2-50.944-51.2h-611.635c0 0-50.944 0-50.944 51.2v51.2h713.523v-51.2zM715.827 102.4h-407.706c0 0-50.944 0-50.944 51.2h509.645c0-51.2-50.995-51.2-50.995-51.2zM970.65 307.2c-30.157-30.31-30.157-30.31-30.157-30.31l0 81.51h-857.037v-81.51c0 0 0 0-30.157 30.31s-51.763 38.451-39.578 102.451c12.032 63.744 70.554 413.44 79.206 460.749 9.574 51.917 62.31 51.2 62.31 51.2h713.523c0 0 52.736 0.717 62.31-51.2 8.704-47.309 67.174-397.005 79.258-460.749 12.134-64-9.472-72.141-39.68-102.451zM715.827 583.68c0 0 0 51.2-50.995 51.2h-305.715c-50.944 0-50.944-51.2-50.944-51.2v-102.4h71.373v81.92h264.858v-81.92h71.475l0 102.4z"></path>
	</symbol>

	<symbol id="icon-config" viewBox="0 0 1100 1024">
		<path class="path1" d="M0 564v-105.714q0-5.714 4-11.143t9.143-6l88.571-13.714q6.286-20 18.286-43.429-19.429-27.429-51.429-65.714-4-6.286-4-11.429 0-6.857 4-11.429 12.571-17.143 46.857-50.857t45.143-33.714q6.286 0 12 4l65.714 51.429q19.429-10.286 44-18.286 6.286-61.714 13.143-88 4-13.714 17.143-13.714h106.286q6.286 0 11.429 4.286t5.714 10l13.143 87.429q19.429 5.714 42.857 17.714l67.429-50.857q4.571-4 11.429-4 6.286 0 12 4.571 82.286 76 82.286 91.429 0 5.143-4 10.857-6.857 9.143-24 30.857t-25.714 34.286q13.143 27.429 19.429 46.857l86.857 13.143q5.714 1.143 9.714 6t4 11.143v105.714q0 5.714-4 11.143t-9.143 6l-88.571 13.714q-6.286 20-18.286 43.429 19.429 27.429 51.429 65.714 4 5.714 4 11.429 0 6.857-4 10.857-13.143 17.143-47.143 51.143t-44.857 34q-6.286 0-12-4l-65.714-51.429q-21.143 10.857-44 17.714-6.286 61.714-13.143 88.571-4 13.714-17.143 13.714h-106.286q-6.286 0-11.429-4.286t-5.714-10l-13.143-87.429q-19.429-5.714-42.857-17.714l-67.429 50.857q-4 4-11.429 4-6.286 0-12-4.571-82.286-76-82.286-91.429 0-5.143 4-10.857 5.714-8 23.429-30.286t26.857-34.857q-13.143-25.143-20-46.857l-86.857-13.714q-5.714-0.571-9.714-5.429t-4-11.143zM219.429 512q0 60.571 42.857 103.429t103.429 42.857 103.429-42.857 42.857-103.429-42.857-103.429-103.429-42.857-103.429 42.857-42.857 103.429zM658.286 844.571v-80q0-9.143 85.143-17.714 7.429-16.571 17.143-29.714-29.143-64.571-29.143-78.857 0-2.286 2.286-4 2.286-1.143 20-11.429t33.714-19.429 17.143-9.143q4.571 0 26.286 26.571t29.714 38.571q11.429-1.143 17.143-1.143t17.143 1.143q29.143-40.571 52.571-64l3.429-1.143q2.286 0 70.857 40 2.286 1.714 2.286 4 0 14.286-29.143 78.857 9.714 13.143 17.143 29.714 85.143 8.571 85.143 17.714v80q0 9.143-85.143 17.714-6.857 15.429-17.143 29.714 29.143 64.571 29.143 78.857 0 2.286-2.286 4-69.714 40.571-70.857 40.571-4.571 0-26.286-26.857t-29.714-38.857q-11.429 1.143-17.143 1.143t-17.143-1.143q-8 12-29.714 38.857t-26.286 26.857q-1.143 0-70.857-40.571-2.286-1.714-2.286-4 0-14.286 29.143-78.857-10.286-14.286-17.143-29.714-85.143-8.571-85.143-17.714zM658.286 259.429v-80q0-9.143 85.143-17.714 7.429-16.571 17.143-29.714-29.143-64.571-29.143-78.857 0-2.286 2.286-4 2.286-1.143 20-11.429t33.714-19.429 17.143-9.143q4.571 0 26.286 26.571t29.714 38.571q11.429-1.143 17.143-1.143t17.143 1.143q29.143-40.571 52.571-64l3.429-1.143q2.286 0 70.857 40 2.286 1.714 2.286 4 0 14.286-29.143 78.857 9.714 13.143 17.143 29.714 85.143 8.571 85.143 17.714v80q0 9.143-85.143 17.714-6.857 15.429-17.143 29.714 29.143 64.571 29.143 78.857 0 2.286-2.286 4-69.714 40.571-70.857 40.571-4.571 0-26.286-26.857t-29.714-38.857q-11.429 1.143-17.143 1.143t-17.143-1.143q-8 12-29.714 38.857t-26.286 26.857q-1.143 0-70.857-40.571-2.286-1.714-2.286-4 0-14.286 29.143-78.857-10.286-14.286-17.143-29.714-85.143-8.571-85.143-17.714zM804.571 804.571q0 30.286 21.429 51.714t51.714 21.429 51.714-21.429 21.429-51.714q0-29.714-21.714-51.429t-51.429-21.714-51.429 21.714-21.714 51.429zM804.571 219.429q0 30.286 21.429 51.714t51.714 21.429 51.714-21.429 21.429-51.714q0-29.714-21.714-51.429t-51.429-21.714-51.429 21.714-21.714 51.429z"/>
	</symbol>

	<symbol id="icon-off" viewBox="0 0 512 512">
		<path class="path1" d="M438.857 221.714q0-44.572-17.428-85.143t-46.857-70-70-46.857-85.143-17.428-85.143 17.428-70 46.857-46.857 70-17.428 85.143q0 52 23 98t64.715 77.143q12.285 9.143 27.285 7.143t23.857-14.286q9.143-12 7-27t-14.143-24.143q-28-21.143-43.285-51.714t-15.285-65.143q0-29.714 11.572-56.714t31.285-46.714 46.715-31.286 56.714-11.572 56.714 11.572 46.714 31.286 31.286 46.714 11.572 56.714q0 34.572-15.286 65.143t-43.286 51.715q-12 9.143-14.143 24.143t7 27q8.857 12.285 24 14.285t27.143-7.143q41.714-31.143 64.714-77.143t23-98zM256 441.143v-182.857q0-14.857-10.857-25.714t-25.715-10.857-25.714 10.857-10.857 25.714v182.857q0 14.857 10.857 25.715t25.714 10.857 25.714-10.857 10.857-25.715z" />
	</symbol>

	<symbol id="icon-key" viewBox="0 0 512 512">
		<path class="path1" d="M501.066 322.879l-50.553 50.552c-12.396 12.397-32.685 32.684-45.081 45.082l-50.553 50.552c-12.396 12.397-34.477 14.583-49.065 4.858l-138.219-92.146c-14.588-9.726-20.109-30.514-12.268-46.195l35.243-70.487c1.077-2.153 2.323-4.448 3.695-6.83l-178.265-178.265-16-112h96v32h64v64h64v64h64v35.593c3.198-1.906 6.267-3.608 9.096-5.022l70.485-35.244c15.683-7.841 36.47-2.319 46.195 12.269l92.147 138.22c9.727 14.586 7.539 36.665-4.857 49.063zM75.314 52.687l-22.627 22.627 155.786 155.785 22.627-22.627-155.786-155.785zM458.51 268.118l-22.628-22.628c-6.223-6.222-16.404-6.222-22.627 0l-135.765 135.765c-6.223 6.222-6.223 16.405 0 22.627l22.628 22.628c6.223 6.222 16.404 6.222 22.627 0l135.765-135.765c6.223-6.222 6.223-16.405 0-22.627z" />
	</symbol>


</svg>
