<?xml version="1.0" encoding="utf-8"?>
<!DOCTYPE svg PUBLIC "-//W3C//DTD SVG 1.1//EN" "http://www.w3.org/Graphics/SVG/1.1/DTD/svg11.dtd">

<svg version="1.1" xmlns="http://www.w3.org/2000/svg" xmlns:xlink="http://www.w3.org/1999/xlink">
	<symbol id="icon-save" viewBox="0 0 32 32">
		<path class="path1" d="M29.894 18.237l-5.037-11.987c-0.397-0.8-1.453-1.454-2.347-1.454h-3.278l0.608 6.504h4.32l-8.16 6.768-8.16-6.768h4.32l0.608-6.502h-3.277c-0.893 0-1.949 0.654-2.347 1.454l-5.037 11.987c-0.4 0.8-0.605 2.176-0.459 3.059l1.088 5.898c0.147 0.882 0.997 1.603 1.89 1.603h22.75c0.894 0 1.744-0.722 1.891-1.603l1.088-5.898c0.144-0.883-0.061-2.261-0.461-3.061zM27.712 22.438l-0.413 2.403c-0.125 0.923-0.957 1.678-1.846 1.678h-18.906c-0.891 0-1.723-0.755-1.846-1.678l-0.414-2.403c-0.123-0.923 0.506-1.678 1.397-1.678h20.634c0.893 0.002 1.52 0.755 1.395 1.678z"></path>
	</symbol>

	<symbol id="icon-preview" viewBox="-4 -4 40 40">
		<path class="path1" d="M30 32h-22q-0.844 0-1.422-0.578t-0.578-1.422v-2.531q-2.656-0.969-4.328-3.281t-1.672-5.219 1.672-5.219 4.328-3.25v-8.5q0-0.813 0.578-1.406t1.422-0.594h12v11q0 0.406 0.297 0.703t0.703 0.297h10.969l0.031 0.031v17.969q0 0.813-0.594 1.406t-1.406 0.594zM19.75 27.156l-4.719-4.688q0.969-1.656 0.969-3.5 0-2.875-2.047-4.938t-4.953-2.063-4.953 2.047-2.047 4.953 2.047 4.953 4.953 2.047q1.813 0 3.5-0.969l4.688 4.719q0.25 0.25 0.625 0.25t0.656-0.25l1.281-1.281q0.25-0.25 0.25-0.625t-0.25-0.656zM9 23.969q-2.063 0-3.531-1.453t-1.469-3.531 1.469-3.547 3.531-1.469 3.531 1.469 1.469 3.547-1.469 3.531-3.531 1.453zM22-0.031q0.813 0.031 1.375 0.594l8.031 8.031q0.594 0.594 0.563 1.406h-9.969v-10.031z"></path>
	</symbol>
	
	<symbol id="icon-add" viewBox="0 0 32 32">
		<path class="path1" d="M21.714 17.143v-2.286q0-0.464-0.339-0.804t-0.804-0.339h-4.571v-4.571q0-0.464-0.339-0.804t-0.804-0.339h-2.286q-0.464 0-0.804 0.339t-0.339 0.804v4.571h-4.571q-0.464 0-0.804 0.339t-0.339 0.804v2.286q0 0.464 0.339 0.804t0.804 0.339h4.571v4.571q0 0.464 0.339 0.804t0.804 0.339h2.286q0.464 0 0.804-0.339t0.339-0.804v-4.571h4.571q0.464 0 0.804-0.339t0.339-0.804zM27.429 16q0 3.732-1.839 6.884t-4.991 4.991-6.884 1.839-6.884-1.839-4.991-4.991-1.839-6.884 1.839-6.884 4.991-4.991 6.884-1.839 6.884 1.839 4.991 4.991 1.839 6.884z"></path>
	</symbol>
	
	<symbol id="icon-file" viewBox="0 0 32 32">
		<path class="path1" d="M22.857 13.714v14.286q0 0.714-0.5 1.214t-1.214 0.5h-19.429q-0.714 0-1.214-0.5t-0.5-1.214v-24q0-0.714 0.5-1.214t1.214-0.5h9.714v9.714q0 0.714 0.5 1.214t1.214 0.5h9.714zM22.804 11.429h-9.089v-9.089q1.464 0.268 2.357 1.161l5.571 5.571q0.893 0.893 1.161 2.357z"></path>
	</symbol>
</svg>
